<svg xmlns="http://www.w3.org/2000/svg" viewBox="0 0 200 200" fill="none">
  <defs>
    <linearGradient id="grad1" x1="0%" y1="0%" x2="100%" y2="100%">
      <stop offset="0%" style="stop-color:#FF6B35;stop-opacity:1" />
      <stop offset="100%" style="stop-color:#F7931E;stop-opacity:1" />
    </linearGradient>
  </defs>
  
  <!-- Dhaka skyline silhouette -->
  <path fill="url(#grad1)" d="M20,140 L30,140 L30,100 L40,100 L40,140 L50,140 L50,90 L60,90 L60,140 L70,140 L70,80 L80,80 L80,140 L85,140 L85,70 L90,65 L95,70 L95,140 L105,140 L105,85 L115,85 L115,140 L125,140 L125,95 L135,95 L135,140 L145,140 L145,105 L155,105 L155,140 L165,140 L165,110 L175,110 L175,140 L180,140 L180,150 L20,150 Z"/>
  
  <!-- Monument/Landmark (like Shaheed Minar) -->
  <rect fill="#FF6B35" x="85" y="40" width="6" height="25"/>
  <rect fill="#FF6B35" x="95" y="40" width="6" height="25"/>
  <rect fill="#FF6B35" x="105" y="40" width="6" height="25"/>
  <rect fill="#FF6B35" x="115" y="40" width="6" height="25"/>
  <rect fill="#F7931E" x="80" y="35" width="46" height="5"/>
  
  <!-- Map pin icon -->
  <path fill="#004AAD" d="M100,170 C100,170 120,150 120,138 C120,127 111,118 100,118 C89,118 80,127 80,138 C80,150 100,170 100,170 Z"/>
  <circle fill="white" cx="100" cy="138" r="5"/>
  
  <!-- Sun/Star accent -->
  <circle fill="#FFD700" cx="40" cy="40" r="8" opacity="0.8"/>
</svg>